# xmcd CD database file
#
# Track frame offsets:
#	200
#	12440
#	29690
#	46407
#	63680
#	80702
#	96250
#	116160
#	137492
#	150655
#	163437
#
# Disc length: 2343 seconds
#
# Revision: 2
# Processed by: cddbd v1.5.2PL0 Copyright (c) Steve Scherf et al.
# Submitted via: CDex 1.60beta1
#
DISCID=9d09250b
DTITLE=Sweethearts Of The Rodeo - Beautiful Lies
DYEAR=1996
DGENRE=Country
TTITLE0=When Love Comes Around The Bend
TTITLE1=Beautiful Lies
TTITLE2=When The Morning Comes
TTITLE3=Catch The Wind
TTITLE4=I'll Pass Over Thee
TTITLE5=I Won't Cry
TTITLE6=The Inn At Innisfree
TTITLE7=I Know Who You Are
TTITLE8=Pretty Words
TTITLE9=One More Night
TTITLE10=Muleskinner Blues
EXTD=YEAR: 1996
EXTT0=
EXTT1=
EXTT2=
EXTT3=
EXTT4=
EXTT5=
EXTT6=
EXTT7=
EXTT8=
EXTT9=
EXTT10=
PLAYORDER=
